Coordinates
version=1
nRows=8
nColumns=40
inDegrees=yes

Units are S.I. units (second, meters, Newtons, ...)
Angles are in degrees.

endheader
time	pelvis_tilt	pelvis_list	pelvis_rotation	pelvis_tx	pelvis_ty	pelvis_tz	hip_flexion_r	hip_adduction_r	hip_rotation_r	knee_angle_r	knee_angle_r_beta	ankle_angle_r	subtalar_angle_r	mtp_angle_r	hip_flexion_l	hip_adduction_l	hip_rotation_l	knee_angle_l	knee_angle_l_beta	ankle_angle_l	subtalar_angle_l	mtp_angle_l	lumbar_extension	lumbar_bending	lumbar_rotation	arm_flex_r	arm_add_r	arm_rot_r	elbow_flex_r	pro_sup_r	wrist_flex_r	wrist_dev_r	arm_flex_l	arm_add_l	arm_rot_l	elbow_flex_l	pro_sup_l	wrist_flex_l	wrist_dev_l
     57.10878571	     -6.16203669	     -4.70125795	      6.24094607	      1.11032250	      0.92760963	      0.48844615	      3.19279403	      3.98517192	    -17.85442690	     11.75591969	     11.75591969	     14.27186813	      6.48453740	     -4.75958577	     31.63520083	     -8.31686504	     -6.50407883	     16.47213728	     16.47213728	      5.58641970	     -2.12174945	      9.47441622	    -10.78578402	      7.70082772	      3.45835060	     27.90350864	    -23.99307563	      7.09954139	     53.43410971	     45.26804477	      0.00000000	      0.00000000	     -1.55986295	    -10.01299324	    -12.96335174	     46.20732428	     46.64709724	      0.00000000	      0.00000000
     57.12257143	     -6.03270632	     -4.70915585	      6.09752780	      1.11148087	      0.92666231	      0.48710182	      2.55959998	      3.90964552	    -18.05245580	     11.82161209	     11.82161209	     15.13543586	      7.32204749	     -3.75388492	     31.12791861	     -8.09222488	     -6.51789497	     16.65781795	     16.65781795	      3.74683411	     -3.68688397	      6.53492395	    -10.63071502	      7.72229029	      3.41916546	     27.81582326	    -23.53168480	      6.56982202	     52.19334431	     45.34364725	      0.00000000	      0.00000000	     -1.78277637	    -10.17107594	    -12.99557997	     46.28616211	     46.63979849	      0.00000000	      0.00000000
     57.13635714	     -5.92872516	     -4.67748947	      5.91124321	      1.11281715	      0.92555490	      0.48583304	      1.99511639	      3.83764525	    -17.74972018	     11.92513703	     11.92513703	     15.63037240	      7.30363879	     -3.77474417	     30.85609535	     -7.97827416	     -6.77012854	     17.60868291	     17.60868291	      3.34405742	     -4.58319177	      6.30261116	    -10.46988819	      7.69112232	      3.36461340	     27.29975495	    -23.35125443	      6.58400180	     52.06797834	     45.34551320	      0.00000000	      0.00000000	     -1.95418782	    -10.39794245	    -13.07964589	     46.26108456	     46.64518710	      0.00000000	      0.00000000
     57.15014286	     -5.81161553	     -4.65738708	      5.68991681	      1.11435996	      0.92431953	      0.48459127	      1.43367338	      3.77514045	    -17.42042988	     12.08927997	     12.08927997	     16.20888880	      7.23687331	     -3.74825677	     30.52649208	     -7.86895778	     -6.70278423	     18.63942186	     18.63942186	      3.00669332	     -5.87173971	      5.95529876	    -10.26575821	      7.55936702	      3.29939503	     26.64481688	    -23.16096638	      6.52986563	     51.90876783	     45.35072937	      0.00000000	      0.00000000	     -2.16286128	    -10.62335161	    -13.17443892	     46.25966050	     46.65128784	      0.00000000	      0.00000000
     57.16392857	     -5.77926128	     -4.61036350	      5.47456421	      1.11596675	      0.92291421	      0.48319954	      1.04803989	      3.65097169	    -16.96407606	     12.44044643	     12.44044643	     16.89567062	      6.89841959	     -3.37980676	     30.16840664	     -7.58924420	     -6.02558675	     19.46055318	     19.46055318	      2.40402948	     -8.00075090	      5.21446161	     -9.96295392	      7.43329948	      3.22784284	     25.77172429	    -22.91904394	      6.13482496	     51.84237894	     45.36709109	      0.00000000	      0.00000000	     -2.43220589	    -10.82210408	    -13.31785820	     46.37627973	     46.66023607	      0.00000000	      0.00000000
     57.17771429	     -5.55185869	     -4.46860683	      5.23436977	      1.11788350	      0.92184347	      0.48181868	      0.38352178	      3.43653796	    -16.60870195	     12.70067663	     12.70067663	     17.44655109	      6.78947835	     -3.42997001	     29.65887872	     -7.41603701	     -5.91228886	     20.50825983	     20.50825983	      2.53397697	     -9.00017421	      4.88756026	     -9.88007904	      7.15712052	      3.06071377	     24.92196363	    -22.68522998	      6.10503319	     51.67170355	     45.37001435	      0.00000000	      0.00000000	     -2.62252720	    -11.11421109	    -13.42065483	     46.30800739	     46.66724868	      0.00000000	      0.00000000
     57.19150000	     -5.51539536	     -4.40223325	      5.03931626	      1.11953021	      0.92048408	      0.48026252	      0.15131100	      3.25856995	    -15.99759605	     13.34454762	     13.34454762	     18.10417560	      6.05313776	     -3.11800848	     29.42757490	     -7.10177392	     -4.94956752	     21.49033493	     21.49033493	      2.39653843	    -11.20499815	      4.44190313	     -9.58483350	      6.98046159	      2.94598913	     23.80502521	    -22.49705716	      5.50898176	     51.76831155	     45.38701525	      0.00000000	      0.00000000	     -2.75415688	    -11.29135506	    -13.59690436	     46.35907111	     46.67992174	      0.00000000	      0.00000000
     57.20528571	     -5.24154907	     -4.23003272	      4.85767071	      1.12149802	      0.91975880	      0.47870032	     -0.48893094	      2.98122553	    -15.65803389	     13.74459667	     13.74459667	     18.55533806	      5.82758215	     -3.18021722	     28.94583676	     -6.88740432	     -4.66779178	     22.51332830	     22.51332830	      2.86205671	    -12.10601725	      4.10887307	     -9.58010668	      6.63544327	      2.67616830	     22.77646445	    -22.26061916	      5.45508830	     51.57710046	     45.39050935	      0.00000000	      0.00000000	     -2.87661735	    -11.57950110	    -13.70338112	     46.27237086	     46.68775936	      0.00000000	      0.00000000
